PathFileType	4	(X/Y/Z)	/Volumes/GoogleDrive/My Drive/Research/Stanford/Projects/Digital Athlete Project/Sprinting/Sprint Simulation/sprinter/subjects/JA1/experimental_data/TRC/static.trc
DataRate	CameraRate	NumFrames	NumMarkers	Units	OrigDataRate	OrigDataStartFrame	OrigNumFrames
250.000000	250.000000	4	57	mm	250.000000	81	646
Frame#	Time	C7			RSH			LSH			MAN			T7			LARM			LELB			LFOREARM			LWR			RARM			RELB			RFOREARM			RWR			RASI			LASI			SACR			P1			P2			P3			LTHLP			LTHLD			LTHAP			LTHAD			LLEPI			LPAT			LMEPI			LTIAP			LTIAD			LTILAT			LLMAL			LMMAL			LHEEL			LMFS			LMFL			LP1MT			LTOE			LP5MT			RTHLP			RTHLD			RTHAP			RTHAD			RLEPI			RPAT			RMEPI			RTIAP			RTIAD			RTILAT			RLMAL			RMMAL			RHEEL			RMFS			RMFL			RP1MT			RTOE			RP5MT			x56			x57			
		X1	Y1	Z1	X2	Y2	Z2	X3	Y3	Z3	X4	Y4	Z4	X5	Y5	Z5	X6	Y6	Z6	X7	Y7	Z7	X8	Y8	Z8	X9	Y9	Z9	X10	Y10	Z10	X11	Y11	Z11	X12	Y12	Z12	X13	Y13	Z13	X14	Y14	Z14	X15	Y15	Z15	X16	Y16	Z16	X17	Y17	Z17	X18	Y18	Z18	X19	Y19	Z19	X20	Y20	Z20	X21	Y21	Z21	X22	Y22	Z22	X23	Y23	Z23	X24	Y24	Z24	X25	Y25	Z25	X26	Y26	Z26	X27	Y27	Z27	X28	Y28	Z28	X29	Y29	Z29	X30	Y30	Z30	X31	Y31	Z31	X32	Y32	Z32	X33	Y33	Z33	X34	Y34	Z34	X35	Y35	Z35	X36	Y36	Z36	X37	Y37	Z37	X38	Y38	Z38	X39	Y39	Z39	X40	Y40	Z40	X41	Y41	Z41	X42	Y42	Z42	X43	Y43	Z43	X44	Y44	Z44	X45	Y45	Z45	X46	Y46	Z46	X47	Y47	Z47	X48	Y48	Z48	X49	Y49	Z49	X50	Y50	Z50	X51	Y51	Z51	X52	Y52	Z52	X53	Y53	Z53	X54	Y54	Z54	X55	Y55	Z55	X56	Y56	Z56	X57	Y57	Z57	
81	0.324000	-691.572510	1569.905396	314.566437	-646.521973	1557.786499	477.941437	-684.517273	1554.436035	158.611404	-536.357788	1482.418335	310.076904	-744.537842	1374.540161	320.811066	-708.627197	1377.574097	41.594921	-730.236633	1253.714233	-15.775213	-687.413940	1145.064819	-103.008179	-669.066711	1021.232422	-165.559662	-666.707642	1388.747559	589.114685	-697.445557	1264.625977	654.065674	-656.425720	1154.465332	738.448669	-639.683838	1032.349854	802.232666	-531.371765	1086.335083	401.920502	-558.013489	1090.504028	186.421158	-728.199890	1134.656494	321.090576	-749.805725	1109.038208	269.843811	-734.518982	1104.730591	375.074219	-774.184509	1051.409302	323.844513	-669.561768	799.134216	107.923996	-666.296631	685.047668	114.011696	-536.516541	783.367676	174.296936	-558.220947	674.589661	181.119843	-661.546936	559.247925	123.827538	-581.768005	560.822632	185.805786	-662.354248	542.145630	249.778839	-645.258606	382.074158	188.809021	-660.561401	244.128967	181.772919	-696.576294	321.336060	109.063408	-701.814575	102.651398	121.878960	-680.614380	112.954880	214.670242	-765.500366	61.215801	166.228989	-600.349976	94.564453	169.460373	-628.721436	69.603058	107.224182	-553.352112	46.356686	202.652420	-497.803497	58.511108	164.146729	-576.808472	35.895420	78.656204	-631.210571	825.242065	515.895874	-634.653442	711.524231	510.606323	-527.919189	782.431091	425.147491	-548.977112	686.039673	421.458740	-652.056396	559.793030	490.964844	-584.251404	550.766296	427.454071	-685.227051	544.200500	367.931213	-658.252136	344.017853	420.645966	-673.031555	218.078339	414.691315	-693.403748	338.448029	507.638031	-695.101562	102.969696	482.182281	-684.800293	112.799431	388.345978	-765.503113	59.288380	441.557739	-592.500183	98.020645	432.234558	-629.356934	69.680977	491.193542	-554.351868	49.059525	388.686371	-494.005676	59.061321	426.247955	-569.837708	40.672482	515.926514	-659.741699	958.294617	-197.351456	-630.321228	964.058472	837.902954
82	0.328000	-691.570190	1569.886475	314.284363	-646.571167	1557.788818	477.945618	-684.589661	1554.410400	158.660706	-536.393677	1482.409424	310.128235	-744.554321	1374.521240	320.820679	-708.660034	1377.511475	41.614677	-730.274231	1253.644897	-15.593884	-687.374817	1145.079102	-103.007767	-668.998535	1021.208740	-165.557236	-666.756531	1388.799805	589.221375	-697.545044	1264.645386	654.107178	-656.546143	1154.490601	738.497131	-639.830139	1032.369507	802.300537	-531.439575	1086.363281	401.928833	-558.089417	1090.507812	186.556259	-728.205383	1134.706909	321.175995	-749.742676	1108.973145	270.006775	-734.493835	1104.690796	375.171051	-774.211975	1051.416260	323.889496	-669.592224	799.161560	107.963295	-666.308838	685.054871	114.028526	-536.513000	783.383057	174.306442	-558.211121	674.574280	181.068192	-661.549866	559.351685	123.929016	-581.752136	560.821289	185.801376	-662.308167	542.145935	249.759842	-645.338623	382.071991	188.973190	-660.560059	244.107513	181.758148	-696.582092	321.318146	109.083275	-701.797058	102.681808	121.839592	-680.590210	113.013695	214.661255	-765.463501	61.207176	166.198639	-600.417664	94.627457	169.611313	-628.617310	69.577545	107.168320	-553.341125	46.351048	202.656723	-497.817688	58.527527	164.102097	-576.779541	35.809319	78.645073	-631.224487	825.264282	515.973083	-634.657104	711.508179	510.605316	-527.955994	782.449219	425.247620	-549.084473	686.056641	421.613464	-652.098694	559.730591	490.870941	-584.259705	550.786194	427.409637	-685.214539	544.223328	367.962494	-658.261658	344.032654	420.667450	-673.072510	218.110229	414.754211	-693.468018	338.466248	507.603577	-695.042297	103.020721	482.270294	-684.514343	112.861778	388.097992	-765.463501	59.317245	441.404755	-592.570618	97.957047	432.225983	-629.330261	69.720398	491.237671	-554.407227	49.124714	388.799438	-493.999268	59.068024	426.341888	-569.785339	40.703697	515.977600	-659.658752	958.251587	-197.348022	-630.481934	964.075012	837.981628
83	0.332000	-691.677795	1569.892822	314.276917	-646.602173	1557.791626	477.996246	-684.698303	1554.409058	158.791794	-536.455505	1482.426758	310.126984	-744.581360	1374.493896	320.914581	-708.726868	1377.503784	41.704304	-730.302856	1253.614502	-15.563003	-687.448669	1144.980103	-102.822708	-669.017029	1021.140259	-165.323578	-666.773193	1388.805420	589.280701	-697.638184	1264.558472	654.115540	-656.572449	1154.506958	738.561707	-639.933044	1032.407104	802.355042	-531.476074	1086.365479	401.975067	-558.095764	1090.491211	186.574829	-728.294800	1134.782593	321.169708	-749.773071	1108.885864	270.102509	-739.353699	1105.360474	375.728546	-774.215088	1051.402222	323.980164	-669.572815	799.152283	107.978371	-666.290894	685.059998	114.071945	-536.490356	783.373962	174.354126	-558.160461	674.587280	181.124481	-661.548706	559.379883	124.035606	-581.753052	560.827148	185.827240	-662.282104	542.046570	249.782333	-645.313599	382.013336	188.993149	-660.551941	244.131302	181.780182	-696.564026	321.386688	109.092026	-701.782043	102.685646	121.839386	-680.496582	113.003342	214.821106	-765.463562	61.295570	166.239807	-600.424988	94.568779	169.620361	-628.544128	69.615608	107.011131	-553.283142	46.353065	202.747772	-497.740356	58.545788	164.000076	-576.807068	35.920059	78.667160	-631.256897	825.262268	516.029297	-634.550110	711.543762	510.810120	-527.978699	782.414001	425.242767	-549.029785	686.040222	421.480377	-652.144836	559.715088	490.973633	-584.277161	550.785583	427.430145	-685.225891	544.218689	367.958832	-658.293701	344.011597	420.693237	-673.096863	218.072052	414.803955	-693.461975	338.429749	507.603394	-695.021362	103.006233	482.292908	-684.733154	112.802582	388.286377	-765.493530	59.449493	441.523895	-592.393677	97.978752	432.017975	-629.311890	69.663132	491.220581	-554.340942	49.052147	388.699463	-494.016693	59.015072	426.248413	-569.825806	40.684788	515.926514	-659.649109	958.198669	-197.089661	-630.627747	964.124634	838.030518
84	0.336000	-691.881042	1569.985474	314.692139	-646.695190	1557.839478	478.041962	-684.744995	1554.404419	158.730774	-536.486145	1482.460205	310.176392	-744.635132	1374.540283	320.932983	-708.782043	1377.500000	41.720673	-730.330750	1253.557739	-15.459418	-687.408020	1144.995605	-102.793968	-668.946350	1021.120667	-165.231918	-666.812988	1388.815796	589.310181	-697.733521	1264.608398	654.159912	-656.669006	1154.555176	738.641174	-640.043213	1032.426880	802.446594	-531.507263	1086.367065	402.013794	-558.141296	1090.555054	186.627426	-728.369995	1134.780396	321.242126	-749.827881	1109.001831	270.155334	-739.335266	1105.315674	375.872314	-774.230408	1051.393311	324.101227	-669.611267	799.152283	108.068649	-666.265137	685.031616	114.098854	-536.484131	783.418518	174.346054	-558.150085	674.572937	181.032455	-661.487427	559.346680	123.947350	-581.711731	560.813538	185.907669	-662.304871	542.050903	249.809784	-645.287415	382.046753	189.018845	-660.503052	244.174484	181.889374	-696.557739	321.341522	109.114113	-701.813049	102.675316	121.946808	-680.625244	112.968987	214.639694	-765.480957	61.208057	166.281067	-600.420410	94.593063	169.596603	-628.731567	69.560760	107.190880	-553.272400	46.350140	202.738556	-497.731689	58.525715	164.011810	-576.750732	35.918797	78.622803	-631.241821	825.259216	516.059753	-634.674438	711.530334	510.717255	-527.968872	782.461182	425.292603	-549.090088	686.090149	421.647614	-652.112061	559.755737	491.057983	-584.295959	550.786072	427.609375	-685.260620	544.226501	367.972595	-658.295044	344.012360	420.679810	-673.190552	218.076218	414.959137	-693.508179	338.402039	507.670410	-695.023132	103.024712	482.286560	-684.716797	112.825966	388.271576	-765.475281	59.305450	441.580475	-592.544312	97.981613	432.093018	-629.368958	69.643639	491.185150	-554.362610	49.052738	388.708618	-494.023224	59.024731	426.227478	-569.828796	40.715332	515.934387	-659.563171	958.161194	-196.966019	-630.745483	964.128479	838.128845
